# AST/ASF file generated using VICON BodyLanguage
# -----------------------------------------------
:version 1.10
:name VICON
:units
  mass 1.0
  length 0.45
  angle deg
:documentation
   .ast/.asf automatically generated from VICON data using
   VICON BodyBuilder and BodyLanguage model FoxedUp or BRILLIANT.MOD
:root
   order TX TY TZ RX RY RZ
   axis XYZ
   position 0 0 0  
   orientation 0 0 0 
:bonedata
  begin
     id 1 
     name lhipjoint
     direction 0.624716 -0.669793 0.401383 
     length 2.38238 
     axis 0 0 0  XYZ
  end
  begin
     id 2 
     name lfemur
     direction 0.34202 -0.939693 0  
     length 6.4574  
     axis 0 0 20  XYZ
    dof rx ry rz
    limits (-160.0 20.0)
           (-70.0 70.0)
           (-60.0 70.0)
  end
  begin
     id 3 
     name ltibia
     direction 0.34202 -0.939693 0   
     length 7.68739   
     axis 0 0 20   XYZ
    dof rx
    limits (-10.0 170.0)
  end
  begin
     id 4 
     name lfoot
     direction 0.0681309 -0.187188 0.979959   
     length 2.46615   
     axis -90 7.62852e-016 20   XYZ
    dof rx rz
    limits (-45.0 90.0)
           (-70.0 20.0)
  end
  begin
     id 5 
     name ltoes
     direction 1.53566e-011 -4.21819e-011 1   
     length 1.2376   
     axis -90 7.62852e-016 20   XYZ
    dof rx
    limits (-90.0 20.0)
  end
  begin
     id 6 
     name rhipjoint
     direction -0.644473 -0.655875 0.393043   
     length 2.43293  
     axis 0 0 0  XYZ 
  end
  begin
     id 7 
     name rfemur
     direction -0.34202 -0.939693 0   
     length 6.7025   
     axis 0 0 -20   XYZ
    dof rx ry rz
    limits (-160.0 20.0)
           (-70.0 70.0)
           (-70.0 60.0)
  end
  begin
     id 8 
     name rtibia
     direction -0.34202 -0.939693 0   
     length 7.80547   
     axis 0 0 -20   XYZ
    dof rx
    limits (-10.0 170.0)
 end
 begin
     id 9 
     name rfoot
     direction -0.0756734 -0.207911 0.975216   
     length 2.40315  
     axis -90 -7.62852e-016 -20   XYZ
    dof rx rz
    limits (-45.0 90.0)
           (-20.0 70.0)
  end
  begin
     id 10 
     name rtoes
     direction -1.5353e-011 -4.21879e-011 1   
     length 1.20477   
     axis -90 -7.62852e-016 -20   XYZ
    dof rx
    limits (-90.0 20.0)
  end
  begin
     id 11 
     name lowerback
     direction 0.0160353 0.987463 -0.157037   
     length 2.18572   
     axis 0 0 0   XYZ
    dof rx ry rz
    limits (-20.0 45.0)
           (-30.0 30.0)
           (-30.0 30.0)
  end
  begin
     id 12 
     name upperback
     direction -0.00499661 0.999756 0.0215076   
     length 2.18016   
     axis 0 0 0   XYZ
    dof rx ry rz
    limits (-20.0 45.0)
           (-30.0 30.0)
           (-30.0 30.0)
  end
  begin
     id 13 
     name thorax
     direction -0.00921346 0.995333 0.0960619   
     length 2.24923   
     axis 0 0 0   XYZ
    dof rx ry rz
    limits (-20.0 45.0)
           (-30.0 30.0)
           (-30.0 30.0)
  end
  begin
     id 14 
     name lowerneck
     direction 0.0274184 0.991181 0.12965   
     length 1.70911   
     axis 0 0 0   XYZ
    dof rx ry rz
    limits (-20.0 45.0)
           (-30.0 30.0)
           (-30.0 30.0)
  end
  begin
     id 15 
     name upperneck
     direction 0.0015627 0.999959 -0.00893559   
     length 1.69312   
     axis 0 0 0   XYZ
    dof rx ry rz
    limits (-20.0 45.0)
           (-30.0 30.0)
           (-30.0 30.0)
  end
  begin
     id 16
     name head
     direction -0.00230242 0.999856 -0.0168327  
     length 1.80241  
     axis 0 0 0   XYZ
    dof rx ry rz
    limits (-20.0 45.0)
           (-30.0 30.0)
           (-30.0 30.0)
  end
  begin
     id 17 
     name lclavicle
     direction 0.955523 0.290741 -0.0494489  
     length 3.84275  
     axis 0 0 0   XYZ
    dof ry rz
    limits (-20.0 10.0)
           (0.0 20.0)
  end
  begin
     id 18 
     name lhumerus
     direction 1 -4.48967e-011 -3.18382e-028   
     length 5.17714   
     axis 180 -30 -90   XYZ
    dof rx ry rz
    limits (-60.0 90.0)
           (-90.0 90.0)
           (-90.0 90.0)
  end
  begin
     id 19
     name lradius
     direction 1 -4.48968e-011 -2.22911e-027   
     length 3.43679   
     axis 180 -30 -90   XYZ
    dof rx
    limits (-10.0 170.0)
  end
  begin
     id 20
     name lwrist
     direction 1 -4.48951e-011 -6.32245e-027   
     length 1.7184   
     axis 3.57107e-015 90 90   XYZ
    dof ry
    limits (-180.0 0.0)
 end
  begin
     id 21 
     name lhand
     direction 1 -4.48924e-011 -1.26431e-026   
     length 0.573117   
     axis 8.06912e-015 90 90   XYZ
    dof rx rz
    limits (-90.0 90.0)
           (-45.0 45.0)
  end
  begin
     id 22 
     name lfingers
     direction 1 -4.49001e-011 -2.52965e-026   
     length 0.462062   
     axis 1.61381e-014 90 90   XYZ
    dof rx
    limits (0.0 90.0)
  end
  begin
     id 23
     name lthumb
     direction 0.707107 -6.35008e-011 0.707107   
     length 0.663431   
     axis -90 45 -1.62303e-014   XYZ
    dof rx rz
    limits (-45.0 45.0)
           (-45.0 45.0)
  end
  begin
     id 24 
     name rclavicle
     direction -0.963917 0.256881 -0.0698287   
     length 3.73057  
     axis 0 0 0   XYZ 
    dof ry rz
    limits (-10.0 20.0)
           (-20.0 0.0)
  end
  begin
     id 25 
     name rhumerus
     direction -1 -4.48962e-011 -2.73982e-027  
     length 5.23908   
     axis 180 30 90   XYZ
    dof rx ry rz
    limits (-90.0 60.0)
           (-90.0 90.0)
           (-90.0 90.0)
  end
  begin
     id 26 
     name rradius
     direction -1 -4.48968e-011 -4.33218e-027   
     length 3.46485   
     axis 180 30 90   XYZ
    dof rx
    limits (-10.0 170.0)
  end
  begin
     id 27 
     name rwrist
     direction -1 -4.48989e-011 -6.32372e-027   
     length 1.73243   
     axis 3.57107e-015 -90 -90   XYZ
    dof ry
    limits (-180.0 0.0)
  end
  begin
     id 28
     name rhand
     direction -1 -4.48948e-011 -1.26448e-026   
     length 0.608752   
     axis 8.06912e-015 -90 -90   XYZ
    dof rx rz
    limits (-90.0 90.0)
           (-45.0 45.0)
  end
  begin
     id 29
     name rfingers
     direction -1 -4.48962e-011 -2.52913e-026   
     length 0.490792   
     axis 1.61381e-014 -90 -90   XYZ
    dof rx
    limits (0.0 90.0)
  end
  begin
     id 30
     name rthumb
     direction -0.707107 -6.34878e-011 0.707107   
     length 0.704682   
     axis -90 -45 1.62303e-014   XYZ
    dof rx rz
    limits (-45.0 45.0)
           (-45.0 45.0)
  end
:hierarchy
  begin
    root lhipjoint rhipjoint lowerback
    lhipjoint lfemur
    lfemur ltibia
    ltibia lfoot
    lfoot ltoes
    rhipjoint rfemur
    rfemur rtibia
    rtibia rfoot
    rfoot rtoes
    lowerback upperback
    upperback thorax
    thorax lowerneck lclavicle rclavicle
    lowerneck upperneck
    upperneck head
    lclavicle lhumerus
    lhumerus lradius
    lradius lwrist
    lwrist lhand lthumb
    lhand lfingers
    rclavicle rhumerus
    rhumerus rradius
    rradius rwrist
    rwrist rhand rthumb
    rhand rfingers
  end

#!OML:ASF G:\JayActor3\Patient Classification 1\Patient 1\Session 6\male.ASF
:FULLY-SPECIFIED
:DEGREES
303
root 48.1748 15.7017 17.5621 -179.35 -18.1727 -184.662
lowerback 1.09922 -1.29887 -4.74552
upperback 4.4442 -1.86362 -2.10864
thorax 4.04842 -1.16517 0.422177
lowerneck -0.870573 3.55691 4.15058
upperneck 2.22145 4.68333 -1.2754
head 0.963697 2.3544 -1.03026
rclavicle 1.17283e-014 1.94809e-014
rhumerus -36.2382 0.634639 -89.1869
rradius 34.4342
rwrist -0.859434
rhand -21.5675 -10.1776
rfingers 7.12502
rthumb 4.82635 -40.1026
lclavicle 1.17283e-014 1.94809e-014
lhumerus -26.81 -6.15944 87.7573
lradius 48.6411
lwrist 10.0396
lhand -9.04705 12.4869
lfingers 7.12502
lthumb 16.9011 41.7714
rfemur -38.1735 4.62475 13.9926
rtibia 78.5408
rfoot -7.94734 -21.6184
rtoes 6.02812
lfemur -0.611518 14.9258 -29.2697
ltibia 21.9777
lfoot -20.3051 -1.01275
ltoes 9.84306
304
root 48.1552 15.7072 17.5492 -179.333 -18.091 -184.558
lowerback 1.06209 -1.32038 -4.66032
upperback 4.43443 -1.8892 -2.0958
thorax 4.0576 -1.17398 0.38653
lowerneck -0.773467 3.58593 4.14671
upperneck 2.06439 4.72719 -1.27176
head 0.899083 2.37545 -1.03069
rclavicle -1.54555e-014 -4.45278e-014
rhumerus -36.4254 0.678582 -89.2343
rradius 34.4791
rwrist -0.889556
rhand -21.6366 -10.2065
rfingers 7.12502
rthumb 4.75971 -40.133
lclavicle -1.54555e-014 -4.45278e-014
lhumerus -26.6298 -6.19481 87.6262
lradius 49.1644
lwrist 9.90646
lhand -8.98279 12.5102
lfingers 7.12502
lthumb 16.963 41.7895
rfemur -39.0006 4.65971 14.2402
rtibia 79.1235
rfoot -7.63684 -21.6353
rtoes 5.79987
lfemur -0.461233 15.0362 -29.2037
ltibia 21.7258
lfoot -20.2887 -0.973606
ltoes 9.47376
305
root 48.1357 15.7126 17.5355 -179.321 -18.0126 -184.452
lowerback 1.02866 -1.34247 -4.58147
upperback 4.42894 -1.91596 -2.07842
thorax 4.06955 -1.1839 0.35904
lowerneck -0.671516 3.61052 4.14268
upperneck 1.89266 4.76566 -1.27519
head 0.829284 2.39364 -1.03371
rclavicle -1.98785e-015 -1.98785e-015
rhumerus -36.6024 0.72579 -89.2791
rradius 34.5131
rwrist -0.904573
rhand -21.7169 -10.2347
rfingers 7.12502
rthumb 4.68218 -40.1629
lclavicle -1.98785e-015 -1.98785e-015
lhumerus -26.4393 -6.2248 87.4948
lradius 49.6758
lwrist 9.77987
lhand -8.91405 12.5362
lfingers 7.12502
lthumb 17.0292 41.8098
rfemur -39.8126 4.69413 14.5049
rtibia 79.6603
rfoot -7.38464 -21.6595
rtoes 5.53063
lfemur -0.301444 15.1462 -29.1319
ltibia 21.4727
lfoot -20.2558 -0.982393
ltoes 9.30582
306
root 48.1161 15.7178 17.5211 -179.315 -17.9386 -184.356
lowerback 1.00506 -1.35791 -4.51124
upperback 4.42698 -1.93482 -2.06319
thorax 4.0795 -1.19043 0.334531
lowerneck -0.562406 3.62574 4.1379
upperneck 1.70833 4.79195 -1.2783
head 0.754164 2.40564 -1.03703
rclavicle -3.65267e-014 3.18055e-015
rhumerus -36.7745 0.743547 -89.3096
rradius 34.5363
rwrist -0.90386
rhand -21.7871 -10.2455
rfingers 7.12502
rthumb 4.61439 -40.1753
lclavicle -3.65267e-014 3.18055e-015
lhumerus -26.2475 -6.27098 87.3727
lradius 50.1801
lwrist 9.65894
lhand -8.85167 12.5729
lfingers 7.12502
lthumb 17.0892 41.8413
rfemur -40.6057 4.72858 14.7723
rtibia 80.1564
rfoot -7.21812 -21.7076
rtoes 5.2897
lfemur -0.123904 15.237 -29.0702
ltibia 21.2109
lfoot -20.2114 -1.01789
ltoes 9.33076
307
root 48.096 15.723 17.5064 -179.31 -17.8733 -184.268
lowerback 0.992117 -1.37717 -4.44938
upperback 4.4238 -1.95952 -2.04429
thorax 4.0828 -1.20012 0.318653
lowerneck -0.451227 3.64284 4.12365
upperneck 1.51961 4.82095 -1.28123
head 0.677338 2.4189 -1.03885
rclavicle 6.41081e-015 5.36719e-014
rhumerus -36.9373 0.749532 -89.3227
rradius 34.5435
rwrist -0.888847
rhand -21.8378 -10.2394
rfingers 7.12502
rthumb 4.56537 -40.1702
lclavicle 6.41081e-015 5.36719e-014
lhumerus -26.0507 -6.30397 87.2554
lradius 50.671
lwrist 9.54746
lhand -8.77577 12.6188
lfingers 7.12502
lthumb 17.1623 41.8808
rfemur -41.3872 4.74958 15.0401
rtibia 80.6123
rfoot -7.17333 -21.7774
rtoes 5.12858
lfemur 0.0650698 15.2989 -29.0212
ltibia 20.9354
lfoot -20.1648 -1.04469
ltoes 9.44465
308
root 48.0755 15.728 17.4917 -179.302 -17.8177 -184.192
lowerback 0.989698 -1.39953 -4.39676
upperback 4.42031 -1.98918 -2.02778
thorax 4.08024 -1.21263 0.305639
lowerneck -0.343561 3.6626 4.10392
upperneck 1.32594 4.85316 -1.27681
head 0.599479 2.43369 -1.03754
rclavicle 2.38542e-015 -3.97569e-015
rhumerus -37.0934 0.75065 -89.3291
rradius 34.5439
rwrist -0.869581
rhand -21.8674 -10.2224
rfingers 7.12502
rthumb 4.5368 -40.1538
lclavicle 2.38542e-015 -3.97569e-015
lhumerus -25.8493 -6.32938 87.1382
lradius 51.1546
lwrist 9.43789
lhand -8.6812 12.6839
lfingers 7.12502
lthumb 17.2533 41.938
rfemur -42.1615 4.75937 15.3011
rtibia 81.0302
rfoot -7.22478 -21.8645
rtoes 4.92052
lfemur 0.265372 15.3201 -28.9952
ltibia 20.6422
lfoot -20.1161 -1.03436
ltoes 9.56996
309
root 48.0543 15.7332 17.4769 -179.291 -17.774 -184.122
lowerback 0.995342 -1.42531 -4.34506
upperback 4.4164 -2.02402 -2.01132
thorax 4.0729 -1.22771 0.293196
lowerneck -0.242473 3.68488 4.08061
upperneck 1.13425 4.88833 -1.26942
head 0.523415 2.44992 -1.03468
rclavicle 3.926e-015 -8.74653e-015
rhumerus -37.2467 0.757064 -89.3305
rradius 34.5443
rwrist -0.857918
rhand -21.8848 -10.2064
rfingers 7.12502
rthumb 4.52001 -40.1382
lclavicle 3.926e-015 -8.74653e-015
lhumerus -25.6471 -6.34798 87.0256
lradius 51.6338
lwrist 9.34683
lhand -8.58499 12.765
lfingers 7.12502
lthumb 17.3459 42.011
rfemur -42.9247 4.75272 15.5594
rtibia 81.4049
rfoot -7.36107 -21.9427
rtoes 4.6088
lfemur 0.475743 15.2904 -28.9864
ltibia 20.3304
lfoot -20.0575 -0.984661
ltoes 9.75049
310
root 48.0329 15.7385 17.4619 -179.279 -17.7479 -184.054
lowerback 1.00614 -1.45906 -4.2914
upperback 4.4146 -2.06994 -1.9948
thorax 4.06514 -1.24835 0.279539
lowerneck -0.152293 3.71045 4.05931
upperneck 0.944413 4.92738 -1.26699
head 0.450208 2.46805 -1.03361
rclavicle -2.70844e-014 -9.54166e-015
rhumerus -37.397 0.790201 -89.3397
rradius 34.5512
rwrist -0.864005
rhand -21.9028 -10.1973
rfingers 7.12502
rthumb 4.50262 -40.1294
lclavicle -2.70844e-014 -9.54166e-015
lhumerus -25.4428 -6.34185 86.9106
lradius 52.1142
lwrist 9.26584
lhand -8.46732 12.8617
lfingers 7.12502
lthumb 17.4591 42.0977
rfemur -43.6744 4.73124 15.82
rtibia 81.7332
rfoot -7.53061 -21.9981
rtoes 4.11941
lfemur 0.696567 15.2255 -28.9849
ltibia 19.9996
lfoot -19.9871 -0.899203
ltoes 9.90638
311
root 48.0112 15.7438 17.4466 -179.273 -17.7379 -183.982
lowerback 1.0262 -1.49667 -4.22948
upperback 4.41599 -2.12183 -1.97978
thorax 4.05523 -1.2718 0.259799
lowerneck -0.057066 3.73291 4.04078
upperneck 0.744394 4.96245 -1.26885
head 0.373253 2.48409 -1.03477
rclavicle -1.78409e-014 -1.82882e-014
rhumerus -37.547 0.839787 -89.3587
rradius 34.565
rwrist -0.882979
rhand -21.9223 -10.1913
rfingers 7.12502
rthumb 4.48381 -40.1239
lclavicle -1.78409e-014 -1.82882e-014
lhumerus -25.2437 -6.32601 86.7963
lradius 52.6012
lwrist 9.20458
lhand -8.34092 12.9684
lfingers 7.12502
lthumb 17.5808 42.1936
rfemur -44.3994 4.69939 16.0872
rtibia 82.01
rfoot -7.70042 -22.0244
rtoes 3.42879
lfemur 0.936161 15.13 -28.9823
ltibia 19.6507
lfoot -19.8977 -0.804017
ltoes 10.1524
312
root 47.9899 15.7493 17.4304 -179.276 -17.7483 -183.902
lowerback 1.05378 -1.53908 -4.16738
upperback 4.42068 -2.18068 -1.95897
thorax 4.04491 -1.29889 0.245932
lowerneck 0.0397164 3.75565 4.02396
upperneck 0.547977 4.99789 -1.27848
head 0.297551 2.50032 -1.03882
rclavicle -6.22196e-014 -1.55052e-014
rhumerus -37.6992 0.902646 -89.3781
rradius 34.5852
rwrist -0.912607
rhand -21.9506 -10.1948
rfingers 7.12502
rthumb 4.45648 -40.1279
lclavicle -6.22196e-014 -1.55052e-014
lhumerus -25.0512 -6.30009 86.6905
lradius 53.0868
lwrist 9.13904
lhand -8.21731 13.0731
lfingers 7.12502
lthumb 17.6997 42.2875
rfemur -45.0911 4.65887 16.3686
rtibia 82.2316
rfoot -7.82275 -22.0216
rtoes 2.52533
lfemur 1.20023 15.0378 -28.9624
ltibia 19.2817
lfoot -19.791 -0.712398
ltoes 10.3525
313
root 47.9689 15.7549 17.4132 -179.289 -17.7734 -183.82
lowerback 1.08768 -1.58198 -4.11388
upperback 4.43103 -2.24078 -1.93693
thorax 4.03731 -1.32728 0.238145
lowerneck 0.142649 3.77258 4.02074
upperneck 0.345101 5.02576 -1.299
head 0.219409 2.51271 -1.049
rclavicle 7.65818e-014 3.22031e-014
rhumerus -37.845 0.955697 -89.3968
rradius 34.6035
rwrist -0.932141
rhand -21.983 -10.1902
rfingers 7.12502
rthumb 4.42523 -40.124
lclavicle 7.65818e-014 3.22031e-014
lhumerus -24.8573 -6.27898 86.5872
lradius 53.5653
lwrist 9.07472
lhand -8.10842 13.1559
lfingers 7.12502
lthumb 17.8045 42.3608
rfemur -45.7476 4.61563 16.6551
rtibia 82.3966
rfoot -7.88452 -21.9811
rtoes 1.49154
lfemur 1.48985 14.9762 -28.9247
ltibia 18.894
lfoot -19.6593 -0.681211
ltoes 10.6162
314
root 47.9484 15.76 17.395 -179.314 -17.8112 -183.754
lowerback 1.1363 -1.62391 -4.08393
upperback 4.45016 -2.30091 -1.91762
thorax 4.0314 -1.35712 0.240933
lowerneck 0.245999 3.78853 4.0179
upperneck 0.135142 5.05207 -1.311
head 0.138821 2.52419 -1.05689
rclavicle 1.51076e-014 1.66979e-014
rhumerus -37.9847 1.00617 -89.4143
rradius 34.6237
rwrist -0.948936
rhand -22.013 -10.1796
rfingers 7.12502
rthumb 4.39618 -40.1139
lclavicle 1.51076e-014 1.66979e-014
lhumerus -24.661 -6.26535 86.4893
lradius 54.0338
lwrist 9.00005
lhand -8.03115 13.219
lfingers 7.12502
lthumb 17.8789 42.4171
rfemur -46.3631 4.56847 16.9299
rtibia 82.5083
rfoot -7.85859 -21.8931
rtoes 0.353595
lfemur 1.81418 14.9453 -28.8856
ltibia 18.4897
lfoot -19.5184 -0.694415
ltoes 10.8651
315
root 47.928 15.7651 17.3757 -179.334 -17.8621 -183.696
lowerback 1.17695 -1.67144 -4.07346
upperback 4.47181 -2.36797 -1.89751
thorax 4.03382 -1.39134 0.254821
lowerneck 0.34695 3.80782 4.01397
upperneck -0.0736276 5.08249 -1.31635
head 0.0589407 2.53763 -1.06264
rclavicle 1.98785e-015 8.34896e-015
rhumerus -38.1164 1.07298 -89.4348
rradius 34.6439
rwrist -0.976692
rhand -22.0425 -10.1621
rfingers 7.12502
rthumb 4.36769 -40.0971
lclavicle 1.98785e-015 8.34896e-015
lhumerus -24.4592 -6.25136 86.3905
lradius 54.4854
lwrist 8.91024
lhand -7.98104 13.2592
lfingers 7.12502
lthumb 17.9271 42.4529
rfemur -46.9582 4.51302 17.1936
rtibia 82.5635
rfoot -7.77587 -21.7487
rtoes -0.70813
lfemur 2.14701 14.9469 -28.8436
ltibia 18.0745
lfoot -19.3689 -0.764402
ltoes 11.1545
316
root 47.9072 15.7697 17.3552 -179.355 -17.8977 -183.634
lowerback 1.20803 -1.71658 -4.06324
upperback 4.49704 -2.43134 -1.87738
thorax 4.0453 -1.42396 0.268505
lowerneck 0.444037 3.82924 4.01574
upperneck -0.280532 5.11541 -1.31699
head -0.0196225 2.5522 -1.06797
rclavicle 4.88513e-014 -1.19271e-015
rhumerus -38.2337 1.14815 -89.4618
rradius 34.6572
rwrist -0.99828
rhand -22.0742 -10.1508
rfingers 7.12502
rthumb 4.33713 -40.0864
lclavicle 4.88513e-014 -1.19271e-015
lhumerus -24.2476 -6.23841 86.2844
lradius 54.9169
lwrist 8.808
lhand -7.95386 13.2891
lfingers 7.12502
lthumb 17.9532 42.4805
rfemur -47.5342 4.47942 17.4632
rtibia 82.5609
rfoot -7.61736 -21.5444
rtoes -1.71585
lfemur 2.48926 14.9799 -28.7904
ltibia 17.6532
lfoot -19.2247 -0.851681
ltoes 11.442
